<svg id="icon-trash-can" xmlns="http://www.w3.org/2000/svg" width="16" height="16" viewBox="0 0 16 16">
  <path id="Caminho_118" data-name="Caminho 118" d="M2,0H0V6H2Z" transform="translate(5 7)" fill="#b1b3b3"/>
  <path id="Caminho_119" data-name="Caminho 119" d="M2,0H0V6H2Z" transform="translate(9 7)" fill="#b1b3b3"/>
  <path id="Caminho_120" data-name="Caminho 120" d="M12,1a.945.945,0,0,0-1-1H5A.945.945,0,0,0,4,1V3H0V5H1V15a.945.945,0,0,0,1,1H14a.945.945,0,0,0,1-1V5h1V3H12ZM6,2h4V3H6Zm7,3v9H3V5Z" fill="#b1b3b3"/>
</svg>
