<svg xmlns="http://www.w3.org/2000/svg" width="29.128" height="32" viewBox="0 0 29.128 32">
  <g id="icon-teddy-bear" transform="translate(-22.97)">
    <path id="Caminho_8808" data-name="Caminho 8808" d="M50.116,17.805l-3.737-1.528a3.173,3.173,0,0,0-1-.231,5.853,5.853,0,0,0,1.846-4.169,8.9,8.9,0,0,0-.789-3.641,4.471,4.471,0,0,0,.748-6.9A4.369,4.369,0,0,0,44.035,0a4.492,4.492,0,0,0-4.26,3.253,13.289,13.289,0,0,0-4.481,0A4.492,4.492,0,0,0,31.033,0a4.369,4.369,0,0,0-3.146,1.339,4.47,4.47,0,0,0,.748,6.9,8.9,8.9,0,0,0-.789,3.641,5.853,5.853,0,0,0,1.846,4.169,3.172,3.172,0,0,0-1,.231l-3.738,1.528a3.189,3.189,0,0,0,1.794,6.087A5.676,5.676,0,0,0,26.33,28c.917,3.628,4.355,5.139,6.419,3.042a22.679,22.679,0,0,0,4.785.4,22.679,22.679,0,0,0,4.785-.4,3.258,3.258,0,0,0,4.589.018,6.109,6.109,0,0,0,1.413-7.172,3.189,3.189,0,0,0,1.794-6.087ZM44.035,1.875A2.63,2.63,0,0,1,46.6,4.5a2.563,2.563,0,0,1-1.115,2.116,8.487,8.487,0,0,0-3.9-2.877,2.6,2.6,0,0,1,2.45-1.865Zm-3.82,3.388a.931.931,0,0,0,.144.039A6.593,6.593,0,0,1,44.318,8.23a7.182,7.182,0,0,1,1.029,3.647,4.66,4.66,0,0,1-2.491,3.779,10.743,10.743,0,0,1-10.642,0,4.666,4.666,0,0,1-2.494-3.781,7.182,7.182,0,0,1,.952-3.517.933.933,0,0,0,.078-.131A6.593,6.593,0,0,1,34.708,5.3a.931.931,0,0,0,.144-.039,11.177,11.177,0,0,1,5.363,0ZM28.47,4.5a2.63,2.63,0,0,1,2.563-2.625,2.6,2.6,0,0,1,2.45,1.865,8.487,8.487,0,0,0-3.9,2.877A2.563,2.563,0,0,1,28.47,4.5ZM24.943,21.254a1.315,1.315,0,0,1,.719-1.713c4.061-1.661,3.814-1.576,4.04-1.611a14.824,14.824,0,0,0-1.253,3.31l-1.793.733a1.312,1.312,0,0,1-1.713-.72Zm4.429,8.379a4.347,4.347,0,0,1-1.14-4.509,1.7,1.7,0,0,1,1.053-1.088c1.031-.261,2.253.905,2.667,2.546a3.8,3.8,0,0,1-.275,2.82.933.933,0,0,0-.086.128A1.4,1.4,0,0,1,29.372,29.633Zm4.367-.309c.881-2.9-.837-6.623-3.579-7.14a13.088,13.088,0,0,1,1.85-4.492,12.841,12.841,0,0,0,11.047,0,13.087,13.087,0,0,1,1.85,4.492c-2.742.517-4.46,4.235-3.579,7.14A29.546,29.546,0,0,1,33.739,29.324ZM46.92,27.544c-.531,2.1-2.41,3.408-3.443,1.986a.932.932,0,0,0-.086-.128,3.8,3.8,0,0,1-.275-2.82c.393-1.555,1.586-2.819,2.667-2.546a1.7,1.7,0,0,1,1.053,1.088A4.206,4.206,0,0,1,46.92,27.544Zm3.205-6.29a1.312,1.312,0,0,1-1.714.719l-1.792-.732a14.819,14.819,0,0,0-1.253-3.311,34.264,34.264,0,0,1,4.04,1.611,1.315,1.315,0,0,1,.719,1.714Z" transform="translate(0 0)" fill="#fff"/>
    <path id="Caminho_8809" data-name="Caminho 8809" d="M194.186,129.047a.938.938,0,1,0,.647,1.08A.938.938,0,0,0,194.186,129.047Z" transform="translate(-159.38 -120.942)" fill="#fff"/>
    <path id="Caminho_8810" data-name="Caminho 8810" d="M288.994,130.122a.938.938,0,1,0,.648-1.08A.938.938,0,0,0,288.994,130.122Z" transform="translate(-249.379 -120.938)" fill="#fff"/>
    <path id="Caminho_8811" data-name="Caminho 8811" d="M226.22,179.6a.938.938,0,0,0,1.326,0l1-1a.938.938,0,0,0-.663-1.6h-2a.938.938,0,0,0-.663,1.6Z" transform="translate(-189.349 -165.936)" fill="#fff"/>
  </g>
</svg>
