<svg id="icon-amex" xmlns="http://www.w3.org/2000/svg" width="40.094" height="13.708" viewBox="0 0 40.094 13.708">
  <g id="Grupo_35" data-name="Grupo 35" transform="translate(28.184 1.505)">
    <g id="Grupo_34" data-name="Grupo 34">
      <path id="Caminho_18" data-name="Caminho 18" d="M34.41,17.56l-.737,1.79h1.482Z" transform="translate(-33.673 -17.56)" fill="#4d4d4d"/>
    </g>
  </g>
  <g id="Grupo_37" data-name="Grupo 37" transform="translate(2.707 1.505)">
    <g id="Grupo_36" data-name="Grupo 36">
      <path id="Caminho_19" data-name="Caminho 19" d="M3.963,17.56l-.729,1.79H4.7Z" transform="translate(-3.234 -17.56)" fill="#4d4d4d"/>
    </g>
  </g>
  <g id="Grupo_39" data-name="Grupo 39" transform="translate(18.524 1.677)">
    <g id="Grupo_38" data-name="Grupo 38">
      <path id="Caminho_20" data-name="Caminho 20" d="M23.963,17.847a1.112,1.112,0,0,0-.509-.081H22.132v1h1.3a1.01,1.01,0,0,0,.531-.092.461.461,0,0,0,.221-.427A.411.411,0,0,0,23.963,17.847Z" transform="translate(-22.132 -17.766)" fill="#4d4d4d"/>
    </g>
  </g>
  <g id="Grupo_41" data-name="Grupo 41" transform="translate(23.121 9.403)">
    <g id="Grupo_40" data-name="Grupo 40">
      <path id="Caminho_21" data-name="Caminho 21" d="M29.459,27.077A1.054,1.054,0,0,0,28.946,27H27.624V28h1.3a1.045,1.045,0,0,0,.532-.091.486.486,0,0,0,.222-.432A.432.432,0,0,0,29.459,27.077Z" transform="translate(-27.624 -26.996)" fill="#4d4d4d"/>
    </g>
  </g>
  <g id="Grupo_43" data-name="Grupo 43" transform="translate(18.329 9.401)">
    <g id="Grupo_42" data-name="Grupo 42">
      <path id="Caminho_22" data-name="Caminho 22" d="M23.3,26.994H21.9v1.144h1.386c.413,0,.67-.2.67-.592S23.687,26.994,23.3,26.994Z" transform="translate(-21.899 -26.994)" fill="#4d4d4d"/>
    </g>
  </g>
  <g id="Grupo_45" data-name="Grupo 45" transform="translate(8.551 7.731)">
    <g id="Grupo_44" data-name="Grupo 44">
      <path id="Caminho_23" data-name="Caminho 23" d="M41.223,27.343a.278.278,0,0,0-.023-.022.742.742,0,0,0,.339-.623v-.957A.742.742,0,0,0,40.8,25H38.646a2.384,2.384,0,0,0-1.544.5.733.733,0,0,0-.691-.5H34.259a2.463,2.463,0,0,0-1.413.388A.73.73,0,0,0,32.207,25H28.625a.736.736,0,0,0-.655.408c-.051-.036-.089-.078-.142-.11a3.34,3.34,0,0,0-1.641-.3h-2.48a.735.735,0,0,0-.655.412A2.971,2.971,0,0,0,21.394,25h-3.43a.74.74,0,0,0-.545.236l-.813.876-.78-.866A.727.727,0,0,0,15.275,25H10.958a.742.742,0,0,0-.742.742v4.492a.742.742,0,0,0,.742.742H15.21a.739.739,0,0,0,.544-.239l.819-.886.778.875a.74.74,0,0,0,.555.249h2.087a.741.741,0,0,0,.742-.741v-.767h.6a3.142,3.142,0,0,0,1.632-.376v1.143a.741.741,0,0,0,.742.741h1.079a.741.741,0,0,0,.742-.741v-.9h.4c.1,0,.168,0,.218.007,0,.08,0,.177,0,.24v.654a.742.742,0,0,0,.742.741h1.077a.707.707,0,0,0,.328-.084.736.736,0,0,0,.327.084h3.583a.734.734,0,0,0,.322-.08.725.725,0,0,0,.322.08h2.091a2.746,2.746,0,0,0,1.614-.451.739.739,0,0,0,.681.451h2.091c1.521,0,2.427-.808,2.427-2.159A1.981,1.981,0,0,0,41.223,27.343Zm-19.89,1.381H19.994v1.507H17.907l-1.322-1.487L15.21,30.232H10.958V25.739h4.317L16.6,27.212l1.366-1.473h3.43c.851,0,1.81.239,1.81,1.482S22.272,28.727,21.333,28.724Zm5.937-.578a1.139,1.139,0,0,1,.523.377,1.3,1.3,0,0,1,.178.819v.891H26.894v-.562c0-.27.026-.67-.175-.88-.154-.16-.393-.2-.786-.2H24.786v1.64H23.708V25.741h2.48a2.66,2.66,0,0,1,1.291.211,1.053,1.053,0,0,1,.552,1A1.262,1.262,0,0,1,27.27,28.146Zm4.939-1.476H29.695v.818h2.452V28.4H29.695V29.3l2.514.005v.932H28.627V25.741h3.582Zm2.738,3.559H32.856v-.965h2.082a.62.62,0,0,0,.438-.111.4.4,0,0,0,.126-.294.379.379,0,0,0-.131-.3.565.565,0,0,0-.383-.1c-1-.033-2.261.031-2.261-1.389,0-.654.408-1.338,1.535-1.338h2.151v.956H34.444a.723.723,0,0,0-.43.082.377.377,0,0,0,.072.659,1.244,1.244,0,0,0,.419.051l.577.017a1.74,1.74,0,0,1,1.225.362,1.247,1.247,0,0,1,.322.953C36.628,29.782,36.026,30.234,34.947,30.229Zm4.387,0H37.243v-.965h2.082a.617.617,0,0,0,.437-.111.4.4,0,0,0,.126-.294.379.379,0,0,0-.131-.3.562.562,0,0,0-.383-.1c-1-.033-2.261.031-2.261-1.389,0-.654.408-1.338,1.535-1.338H40.8v.956H38.831a.723.723,0,0,0-.431.082.377.377,0,0,0,.072.659,1.247,1.247,0,0,0,.418.051l.577.017a1.744,1.744,0,0,1,1.226.362,1.254,1.254,0,0,1,.322.953C41.016,29.782,40.412,30.234,39.334,30.229Z" transform="translate(-10.216 -24.999)" fill="#4d4d4d"/>
    </g>
  </g>
  <g id="Grupo_47" data-name="Grupo 47" transform="translate(0 0)">
    <g id="Grupo_46" data-name="Grupo 46">
      <path id="Caminho_24" data-name="Caminho 24" d="M36.189,15.762h-1.1a.742.742,0,0,0-.742.742v.464l-.51-.846a.745.745,0,0,0-.634-.358H31.567a.741.741,0,0,0-.742.742v.63l-.394-.922a.741.741,0,0,0-.68-.449H28.142a.735.735,0,0,0-.443.147.736.736,0,0,0-.444-.147H26.217a2.946,2.946,0,0,0-2.015.63.732.732,0,0,0-.719-.63h-1.1a.739.739,0,0,0-.66.418,1.522,1.522,0,0,0-.133-.1,3.156,3.156,0,0,0-1.672-.314H17.451a.725.725,0,0,0-.372.115.715.715,0,0,0-.372-.115H13.122a.722.722,0,0,0-.4.133.726.726,0,0,0-.4-.133h-1.79a.741.741,0,0,0-.681.453l-.638,1.5-.7-1.525a.745.745,0,0,0-.674-.431H6.084a.741.741,0,0,0-.742.742v.645l-.4-.939a.742.742,0,0,0-.682-.449H2.664a.743.743,0,0,0-.682.449L.06,20.7a.741.741,0,0,0,.681,1.034H1.908a.741.741,0,0,0,.683-.457l.227-.546H4.062l.223.542a.741.741,0,0,0,.686.46H7.156a.741.741,0,0,0,.742-.742v-.018l.141.319a.743.743,0,0,0,.678.441l.943,0a.74.74,0,0,0,.678-.442l.142-.318V21a.741.741,0,0,0,.742.741h1.1a.733.733,0,0,0,.4-.133.729.729,0,0,0,.4.133h3.586a.715.715,0,0,0,.372-.115.723.723,0,0,0,.372.115h1.075A.741.741,0,0,0,19.268,21V20.1h.41c.093,0,.159,0,.208.006.005.076,0,.167,0,.227l0,.1,0,.567a.743.743,0,0,0,.742.736h1.083a.724.724,0,0,0,.332-.09.73.73,0,0,0,.336.09h1.1a.732.732,0,0,0,.714-.6,3.113,3.113,0,0,0,1.943.6H27.4a.739.739,0,0,0,.684-.465l.218-.538h1.237l.227.546a.741.741,0,0,0,.685.456h2.185A.741.741,0,0,0,33.374,21v-.709l.659,1.092a.744.744,0,0,0,.636.358h1.52A.741.741,0,0,0,36.93,21V16.5A.742.742,0,0,0,36.189,15.762ZM12.321,20.995h-1.1l0-3.518L9.659,20.995H8.716L7.156,17.474v3.521H4.971l-.413-1H2.324l-.417,1H.74L2.663,16.5H4.256l1.827,4.254V16.5H7.836L9.241,19.55l1.29-3.048h1.79S12.321,20.995,12.321,20.995Zm4.386-3.556H14.194v.809h2.453v.921H14.194v.9h2.513v.929H13.121V16.5h3.586Zm4.3,1.472a1.255,1.255,0,0,1,.531.378,1.286,1.286,0,0,1,.178.824v.881H20.633l-.005-.567a1.351,1.351,0,0,0-.169-.875,1.052,1.052,0,0,0-.783-.192H18.525v1.634H17.45V16.5h2.469a2.524,2.524,0,0,1,1.3.215,1.048,1.048,0,0,1,.543,1A1.265,1.265,0,0,1,21.006,18.911Zm2.477,2.084h-1.1V16.5h1.1Zm12.706,0H34.668l-2.036-3.371v3.371H30.447l-.418-1H27.8l-.4,1H26.136a2.25,2.25,0,0,1-1.553-.5,2.253,2.253,0,0,1-.576-1.715,2.411,2.411,0,0,1,.575-1.758,2.175,2.175,0,0,1,1.63-.523h1.037v.963H26.232a1.03,1.03,0,0,0-.825.266,1.482,1.482,0,0,0-.308,1.018,1.549,1.549,0,0,0,.3,1.054,1.038,1.038,0,0,0,.748.232h.481L28.142,16.5H29.75l1.816,4.249V16.5H33.2l1.887,3.129V16.5h1.1Zm-9.582-2.787-.466,1.087a.861.861,0,0,1-.211-.022,1.141,1.141,0,0,1-.085-.523,1.09,1.09,0,0,1,.085-.487c.031-.03.057-.056.309-.056Z" transform="translate(0 -15.762)" fill="#4d4d4d"/>
    </g>
  </g>
  <g id="Grupo_49" data-name="Grupo 49" transform="translate(15.611 8.957)">
    <g id="Grupo_48" data-name="Grupo 48">
      <path id="Caminho_25" data-name="Caminho 25" d="M18.651,28.233,20.3,30.065v-3.6Z" transform="translate(-18.651 -26.463)" fill="#4d4d4d"/>
    </g>
  </g>
  <g id="Grupo_51" data-name="Grupo 51" transform="translate(10.364 9.403)">
    <g id="Grupo_50" data-name="Grupo 50">
      <path id="Caminho_26" data-name="Caminho 26" d="M15.073,27h-2.69v.816h2.356v.917H12.383v.894h2.638l1.226-1.32Z" transform="translate(-12.383 -26.996)" fill="#4d4d4d"/>
    </g>
  </g>
</svg>
